<svg width="13" height="20" viewBox="0 0 13 20" fill="none" xmlns="http://www.w3.org/2000/svg">
<path d="M11.9282 5.61822C11.82 5.59017 11.6056 5.53668 11.6056 5.53668L11.605 3.15158C11.605 2.64392 11.188 2.17758 10.4497 1.98854C9.7404 1.80696 9.17383 1.65053 8.10022 1.57968C8.28057 1.42301 8.39515 1.19255 8.39515 0.934849C8.39515 0.462994 8.01254 0.0803833 7.54055 0.0803833C7.06869 0.0803833 6.68608 0.462946 6.68608 0.934849C6.68608 1.1703 6.78136 1.38336 6.93532 1.53793H6.06455C6.2185 1.38336 6.31379 1.1703 6.31379 0.934849C6.31379 0.462994 5.93132 0.0803833 5.45932 0.0803833C4.98737 0.0803833 4.60485 0.462946 4.60485 0.934849C4.60485 1.19251 4.71935 1.42301 4.89979 1.57968C3.82608 1.65053 3.25961 1.80696 2.5503 1.98854C1.81204 2.17758 1.39496 2.64392 1.39496 3.15158L1.39429 5.53668C1.39429 5.53668 1.17995 5.59017 1.07178 5.61822C0.814175 5.68503 0.634399 5.91744 0.634399 6.18351V13.4062C0.634399 13.7287 0.895812 13.9901 1.21832 13.9901H11.7814C12.104 13.9901 12.3654 13.7286 12.3654 13.4062V6.18346C12.3655 5.91744 12.1857 5.68498 11.9282 5.61822ZM2.73868 3.33026C3.71787 3.08778 4.71283 2.93967 5.70229 2.88893V4.75258C4.71317 4.80184 3.71858 4.94567 2.73868 5.18108V3.33026ZM6.51947 8.5417H6.48058C5.79115 8.5417 5.23024 7.98078 5.23024 7.29121C5.23024 6.60173 5.79115 6.04077 6.48058 6.04077H6.51947C7.209 6.04077 7.76991 6.60173 7.76991 7.29121C7.76991 7.98078 7.209 8.5417 6.51947 8.5417ZM10.2614 5.18108C9.28157 4.94562 8.28689 4.80184 7.29777 4.75258V2.88893C8.28727 2.93967 9.28214 3.08778 10.2614 3.33026V5.18108Z" fill="#E4E4E4" fill-opacity="0.67"/>
<path d="M7.79168 16.7525H6.50012H5.20846L4.86987 17.7044C5.4073 17.7502 5.94467 17.7737 6.48062 17.7737H6.51952C7.05542 17.7737 7.59294 17.7502 8.13026 17.7044L7.79168 16.7525Z" fill="#E4E4E4" fill-opacity="0.67"/>
<path d="M11.7873 16.6357V15.1616C11.7873 14.8709 11.5517 14.6354 11.2611 14.6354H1.73856C1.448 14.6354 1.2124 14.871 1.2124 15.1616V16.6357C1.2124 16.8754 1.37454 17.0849 1.60652 17.145C1.75453 17.1834 1.90302 17.2196 2.05151 17.2544L1.41257 18.7027C1.27317 19.0186 1.41619 19.3878 1.73214 19.5271C1.81425 19.5633 1.89993 19.5805 1.98428 19.5805C2.22444 19.5805 2.45343 19.4412 2.5566 19.2074L3.30675 17.5068C3.48719 17.537 3.66782 17.5648 3.84855 17.59L4.38402 16.0847C4.45487 15.8853 4.64368 15.7522 4.85521 15.7522H8.14441C8.35605 15.7522 8.54476 15.8853 8.6157 16.0847L9.15108 17.59C9.3318 17.5648 9.51248 17.537 9.69292 17.5068L10.443 19.2074C10.5462 19.4412 10.7752 19.5805 11.0154 19.5805C11.0996 19.5805 11.1854 19.5633 11.2675 19.5271C11.5835 19.3877 11.7264 19.0186 11.5872 18.7027L10.9483 17.2544C11.0967 17.2196 11.2451 17.1833 11.3932 17.145C11.6251 17.0849 11.7873 16.8754 11.7873 16.6357Z" fill="#E4E4E4" fill-opacity="0.67"/>
</svg>
